# xmcd CD database file
#
# Track frame offsets:
#	150
#	15330
#	28146
#	40750
#	54730
#	68346
#	79564
#	93580
#	105276
#	118317
#	132359
#	144294
#	158088
#	171319
#	183866
#
# Disc length: 2631 seconds
#
# Revision: 0
# Processed by: cddbd v1.5.2PL0 Copyright (c) Steve Scherf et al.
# Submitted via: CDex 1.77
#
DISCID=b80a450f
DTITLE=Lennie Tristano - Buddy DeFranco - Cool and Quiet
DYEAR=1949
DGENRE=Jazz
TTITLE0=Wow
TTITLE1=Crosscurrent
TTITLE2=Yesterdays
TTITLE3=Marionette
TTITLE4=Sax Of A Kind
TTITLE5=Intuition
TTITLE6=Digression
TTITLE7=The Boy Next Door
TTITLE8=A Bird In Igor's Yard
TTITLE9=This Time The Dream's On Me
TTITLE10=Bud's Invention
TTITLE11=Penthouse Serenade
TTITLE12=Extrovert
TTITLE13=Good For Nothin' Joe
TTITLE14=Aishie
EXTD=YEAR: 1949
EXTT0=
EXTT1=
EXTT2=
EXTT3=
EXTT4=
EXTT5=
EXTT6=
EXTT7=
EXTT8=
EXTT9=
EXTT10=
EXTT11=
EXTT12=
EXTT13=
EXTT14=
PLAYORDER=
